<svg width="40" height="40" viewBox="0 0 40 40" fill="none" xmlns="http://www.w3.org/2000/svg">
  <path fill-rule="evenodd" clip-rule="evenodd" d="M20 40C31.0457 40 40 31.0457 40 20C40 8.9543 31.0457 0 20 0C8.9543 0 0 8.9543 0 20C0 31.0457 8.9543 40 20 40ZM28.9914 21.9336C27.6645 25.6615 24.1044 28.3229 19.9306 28.3229C15.7567 28.3229 12.1966 25.6615 10.8697 21.9336L5.12777 23.9774C7.29195 30.0576 13.0982 34.4178 19.9306 34.4178C26.763 34.4178 32.5692 30.0576 34.7334 23.9774L28.9914 21.9336Z" fill="#EF3124"/>
  <path d="M 34.733 23.977 L 28.991 21.934 C 27.665 25.662 24.104 28.323 19.931 28.323 C 15.757 28.323 12.197 25.662 10.87 21.934 L 5.128 23.977 C 7.292 30.058 13.098 34.418 19.931 34.418 C 26.763 34.418 32.569 30.058 34.733 23.977 Z" fill="#FFFFFF"/>
</svg>
